<svg width="15" height="15" viewBox="0 0 15 15" fill="none" xmlns="http://www.w3.org/2000/svg">
    <path d="M13.75 7.375C13.75 10.8958 10.8958 13.75 7.375 13.75C3.85418 13.75 1 10.8958 1 7.375C1 3.85418 3.85418 1 7.375 1C10.8958 1 13.75 3.85418 13.75 7.375Z" fill="#2BAB89"/>
    <path d="M4.54167 7.61111L6.28526 9.5L10.2083 5.25M13.75 7.375C13.75 10.8958 10.8958 13.75 7.375 13.75C3.85418 13.75 1 10.8958 1 7.375C1 3.85418 3.85418 1 7.375 1C10.8958 1 13.75 3.85418 13.75 7.375Z" stroke="white" stroke-width="2" stroke-linecap="round" stroke-linejoin="round"/>
</svg>
