<svg width="49" height="27" viewBox="0 0 49 27" fill="none" xmlns="http://www.w3.org/2000/svg">
    <path d="M25.2458 10.6713C25.2458 10.6713 25.343 11.2704 25.343 12.0064V17.6374C25.3324 18.0053 25.0518 18.2953 24.6822 18.2952H24.4878L24.4685 18.4114H26.7036V18.2952H26.5092C26.1397 18.2952 25.8594 18.0139 25.8485 17.6567V12.258L31.7762 18.5662H31.8734C31.8734 18.5662 31.7762 17.8657 31.7762 17.173V11.5807C31.798 11.2235 32.0782 10.9228 32.437 10.9228H32.6508V10.8261H30.4157V10.9228H30.6101C30.9797 10.9228 31.26 11.2235 31.2709 11.5807V16.9601L25.3431 10.6713H25.2458ZM15.0228 10.8261V10.9422H15.1588C15.5393 10.9422 15.8585 11.2514 15.8585 11.6194V17.618C15.8585 17.986 15.5394 18.2953 15.1588 18.2952H15.0228V18.4114H19.5318L20.1538 16.6505H20.0565C19.7195 17.4731 19.2849 18.0824 18.1325 18.0824H16.5582V11.6194C16.5688 11.2514 16.8774 10.9422 17.2579 10.9422H17.3939V10.8261H15.0228ZM20.97 10.8261V10.9228H21.1061C21.4866 10.9228 21.8057 11.2406 21.8058 11.6194V17.618C21.8058 17.986 21.4866 18.2952 21.1061 18.2952H20.97V18.392H23.3412V18.2952H23.2051C22.8246 18.2952 22.5163 17.986 22.5055 17.618V11.6194C22.516 11.2406 22.8355 10.9228 23.2051 10.9228H23.3412V10.8261H20.97ZM33.6808 10.8261V10.9228H33.8557C34.171 10.9228 34.4278 11.1508 34.4387 11.4646V15.741C34.4387 17.4295 35.6465 18.5662 37.4512 18.5662C39.2124 18.5662 40.386 17.421 40.386 15.7217V11.4453C40.3966 11.1422 40.6452 10.9228 40.9496 10.9228H41.1439V10.8261H39.1227V10.9228H39.2976C39.602 10.9228 39.8697 11.1616 39.8806 11.4646V15.7217C39.8806 17.2153 38.908 18.2179 37.4512 18.2179C36.0705 18.2179 35.1384 17.1665 35.1384 15.5862V11.4646C35.149 11.1616 35.3977 10.9228 35.702 10.9228H35.8964V10.8261H33.6808ZM41.7464 10.8261V10.9228H41.9019C42.3585 10.9228 42.7621 11.2259 42.9903 11.5614L44.9144 14.5607L42.8154 17.6567C42.5871 17.9814 42.1642 18.2952 41.7076 18.2952H41.5715V18.392H44.0204V18.2952H43.9038C43.6102 18.2952 43.3303 17.9404 43.5151 17.6374L45.1865 15.0058L46.8579 17.6374C47.0318 17.9404 46.7628 18.2953 46.4692 18.2952H46.3331V18.392H48.9958V18.2952H48.8403C48.3946 18.2952 47.9803 17.9923 47.752 17.6567L45.6335 14.3672L47.5382 11.5614C47.7665 11.2258 48.1894 10.9422 48.646 10.9422H48.7821V10.8261H46.3331V10.9422H46.4692C46.7628 10.9422 47.0233 11.3056 46.8385 11.6194L45.3614 13.9415L43.8649 11.5807C43.6909 11.2776 43.96 10.9228 44.2536 10.9228H44.3896V10.8261H41.7464Z" fill="currentColor"/>
    <path d="M7.95992 0.000130329C6.3516 0.0149803 4.49047 1.34969 2.95685 3.84801C0.1173 8.47387 -2.2494 19.6818 4.81077 26.9999C-1.28055 19.8164 -0.0153564 8.93939 4.26017 3.59859C4.26763 3.66565 4.27758 3.73122 4.28878 3.7963C4.28257 3.73809 4.28257 3.6792 4.28257 3.61933C4.51082 4.96307 5.87441 6.02638 7.13382 6.77649C8.0549 7.32504 9.33365 8.1185 10.4712 9.13716C9.71297 8.09207 9.06485 7.0617 8.98313 6.1283C8.60904 1.85546 12.806 0.860273 14.665 0.795444C13.6845 0.19221 10.8982 0.0269407 9.34908 0.362117C8.92082 0.114928 8.45157 -0.00451365 7.95925 0.000130329H7.95992ZM7.17958 7.37756C7.37095 10.3206 5.38381 12.7967 6.48115 18.1915C6.993 20.7077 9.17473 23.258 12.1723 23.7163C9.61121 21.5076 9.65487 17.7117 10.0747 14.3585C10.1589 13.6859 10.3076 12.9811 10.271 12.076C11.3289 12.477 12.4947 12.829 13.1004 13.8908C12.9765 13.1349 12.7411 12.4747 12.4273 11.8887C12.2316 11.5585 12.0046 11.2223 11.7624 10.883C10.6276 9.45964 9.01478 8.5429 7.65977 7.67986C7.50473 7.58109 7.34259 7.48003 7.17958 7.37756ZM13.1004 13.8908C13.1066 13.751 13.0942 13.6093 13.0718 13.4644C13.0879 13.6049 13.0973 13.7467 13.1004 13.8908Z" fill="currentColor"/>
</svg>