<svg width="66" height="15" viewBox="0 0 66 15" fill="none" xmlns="http://www.w3.org/2000/svg">
    <path d="M5.44206 3.56589H9.55672L8.92074 5.99389C8.83097 6.31201 8.63912 6.59222 8.37439 6.7919C8.10939 6.9952 7.7828 7.10296 7.44817 7.09752H5.54877C5.13075 7.09045 4.72276 7.22519 4.39205 7.47955C4.0541 7.74036 3.80883 8.10178 3.69205 8.51102C3.60813 8.8127 3.59789 9.12994 3.66217 9.43637C3.72637 9.71381 3.84693 9.97524 4.01644 10.2047C4.18979 10.4323 4.4151 10.6156 4.67376 10.7395C4.9457 10.8732 5.24542 10.9415 5.54877 10.939H6.70121C6.91277 10.9349 7.11321 11.033 7.23902 11.2022C7.37349 11.366 7.41674 11.5858 7.35426 11.788L6.62865 14.4706H5.34816C4.50922 14.4789 3.68108 14.2821 2.93656 13.8976C2.2246 13.5391 1.60083 13.029 1.10972 12.4034C0.624837 11.7782 0.286488 11.053 0.119469 10.2811C-0.0594892 9.46307 -0.0375287 8.61416 0.183493 7.80639L0.256055 7.5135C0.409693 6.94322 0.657806 6.4024 0.990205 5.91324C1.31712 5.43889 1.71761 5.01908 2.1768 4.66953C2.63581 4.31925 3.14903 4.04542 3.69632 3.85878C4.25726 3.66309 4.84761 3.56405 5.44206 3.56589ZM7.52073 14.4876L11.0976 1.12092C11.1874 0.797116 11.3825 0.512014 11.6525 0.310177C11.9172 0.102889 12.2461 -0.00662558 12.583 0.000310328H16.386C17.2186 -0.00481477 18.0402 0.190326 18.7805 0.569106C20.2384 1.30574 21.2855 2.65574 21.6318 4.24505C21.8119 5.06195 21.787 5.91043 21.5592 6.71549L21.4867 6.98716C21.3335 7.5582 21.0869 8.10025 20.7568 8.59167C20.4379 9.07693 20.0414 9.50705 19.583 9.86509C18.6459 10.583 17.4964 10.9725 16.3135 10.973H13.0183L13.6586 8.48979C13.7472 8.17225 13.9375 7.89209 14.2006 7.69178C14.467 7.48754 14.7948 7.3784 15.1311 7.38192H16.2196C17.0935 7.38001 17.8538 6.78663 18.0635 5.94295C18.1463 5.65399 18.1551 5.34903 18.0891 5.0558C18.0268 4.77773 17.906 4.51591 17.7348 4.2875C17.5558 4.06482 17.33 3.88373 17.0732 3.75691C16.809 3.62186 16.5166 3.5506 16.2196 3.54891H14.1665L11.5244 13.3797C11.4327 13.6969 11.2412 13.9766 10.9781 14.1777C10.7195 14.3813 10.3987 14.4907 10.0689 14.4876H7.52073ZM30.2239 7.3522L30.2794 7.1527C30.3066 7.06802 30.2889 6.97542 30.2324 6.90651C30.1796 6.83476 30.0956 6.79223 30.0062 6.7919H24.0903C23.3813 6.79487 22.7679 6.30188 22.622 5.61186C22.5688 5.37997 22.5688 5.13912 22.622 4.90723L22.9891 3.53194H31.0093C31.4836 3.52515 31.9519 3.63757 32.3709 3.85878C32.7718 4.06397 33.1228 4.35368 33.3995 4.70773C33.6761 5.06284 33.87 5.47458 33.9672 5.91324C34.0697 6.37587 34.0594 6.85612 33.9373 7.314L32.4989 12.6412C32.2119 13.7245 31.2224 14.4762 30.0959 14.4664L24.18 14.4324C23.1955 14.4398 22.2646 13.9872 21.6659 13.2099C21.3827 12.8319 21.1847 12.3975 21.0854 11.9365C20.9745 11.4545 20.9862 10.9527 21.1196 10.4763L21.1921 10.2047C21.2793 9.86863 21.4236 9.54992 21.619 9.26234C21.814 8.98026 22.0516 8.72971 22.3233 8.51951C22.5944 8.32186 22.8955 8.16854 23.2153 8.06532C23.5489 7.95064 23.8996 7.89322 24.2525 7.89553H29.2208L28.858 9.25385C28.7669 9.57132 28.5753 9.85113 28.3117 10.0519C28.0521 10.253 27.7316 10.3607 27.4025 10.3575H25.183C24.9909 10.3458 24.8203 10.479 24.7861 10.6673C24.7464 10.7893 24.7739 10.923 24.8586 11.0197C24.9365 11.1185 25.0567 11.1752 25.183 11.1725H28.7684C28.8927 11.1743 29.0142 11.1355 29.1141 11.0621C29.2104 10.993 29.2762 10.8896 29.2977 10.7735L29.3318 10.6291L30.2239 7.3522ZM40.8221 3.56589C41.6667 3.55638 42.5006 3.75315 43.2508 4.13893C43.966 4.5018 44.5914 5.01789 45.0819 5.65006C45.5714 6.28529 45.91 7.02251 46.0722 7.80639C46.2497 8.62681 46.2218 9.4781 45.9911 10.2853L45.0819 13.6811C45.0265 13.9149 44.8868 14.1203 44.6892 14.2584C44.4992 14.4025 44.2666 14.4801 44.0276 14.4791H42.0599C41.6096 14.4877 41.2792 14.0609 41.4026 13.6302L42.4953 9.52127C42.5796 9.23267 42.5899 8.92768 42.5252 8.63412C42.4622 8.35549 42.34 8.09351 42.1667 7.86582C41.8027 7.39198 41.2382 7.11284 40.6386 7.11025H38.5983L36.8355 13.6896C36.7783 13.9226 36.639 14.1274 36.4428 14.2669C36.2461 14.4137 36.0058 14.4913 35.7599 14.4876H33.8093C33.6051 14.4856 33.4137 14.3881 33.2928 14.2244C33.1547 14.0608 33.1097 13.8385 33.1733 13.6344L35.8538 3.56589H40.8221ZM51.5441 7.01687C51.4024 7.12568 51.2956 7.27318 51.2368 7.44134L50.4173 10.5188C50.3671 10.6809 50.4007 10.8573 50.5069 10.9899C50.6059 11.1262 50.7647 11.2068 50.9338 11.2064H58.4759L57.8911 13.3585C57.8011 13.6765 57.6093 13.9566 57.3448 14.1565C57.0866 14.3607 56.7655 14.4702 56.4356 14.4664H49.5807C49.1062 14.4724 48.6373 14.3631 48.2149 14.148C47.8129 13.9445 47.4615 13.6545 47.1862 13.2991C46.9127 12.9389 46.7192 12.5251 46.6185 12.0851C46.5169 11.6258 46.5331 11.1485 46.6655 10.6971L47.7752 6.58815C47.8948 6.14946 48.0866 5.73347 48.3429 5.35717C48.8386 4.61867 49.5644 4.0624 50.4088 3.77389C50.8374 3.62136 51.2895 3.54381 51.7448 3.54467H56.6064C57.0818 3.53987 57.551 3.65216 57.9722 3.87152C58.3731 4.07682 58.7241 4.36654 59.0009 4.72046C59.2784 5.07503 59.4684 5.48936 59.5558 5.93022C59.6533 6.39209 59.6416 6.87013 59.5216 7.32674L59.193 8.55771C59.0599 9.08338 58.7477 9.54695 58.3094 9.86934C57.8795 10.1995 57.3502 10.376 56.807 10.3702H51.3094L51.6722 9.02888C51.752 8.71067 51.9387 8.42909 52.2015 8.23086C52.4665 8.02756 52.7931 7.9198 53.1277 7.92524H55.3515C55.544 7.9353 55.7148 7.80338 55.7527 7.61538L55.8253 7.34371C55.8907 7.08122 55.6958 6.82564 55.424 6.81737H52.0393C51.8558 6.82393 51.6805 6.89457 51.5441 7.01687ZM58.4759 14.4876L62.1381 0.815301C62.1955 0.580066 62.3327 0.371683 62.5265 0.225282C62.7232 0.0778151 62.9632 -0.00123476 63.2095 0.000310328H65.1601C65.3767 -0.00508007 65.5828 0.0927056 65.715 0.263484C65.8479 0.428193 65.8881 0.648627 65.8217 0.849259L63.0899 10.939C62.9605 11.4555 62.7409 11.9454 62.4412 12.3865C62.1535 12.8123 61.7973 13.188 61.3869 13.4986C60.9764 13.8111 60.5181 14.0562 60.0296 14.2244C59.5303 14.3986 59.005 14.4876 58.4759 14.4876Z" fill="currentColor"/>
</svg>
