<svg width="82" height="20" viewBox="0 0 82 20" fill="none" xmlns="http://www.w3.org/2000/svg">
    <path d="M4.20121 6.16291L0.827881 18.8324H2.26451L5.20134 7.19224H5.24482L7.7468 18.8324H9.22692L17.8216 7.37061H17.8651L14.6674 18.8324H16.1258L19.4539 6.16291H17.2998L8.77034 17.5363L6.35533 6.16291H4.20121Z" fill="currentColor"/>
    <path d="M20.8521 9.67638L18.4354 18.8324H19.8068L22.2219 9.67638H20.8521Z" fill="currentColor"/>
    <path d="M24.192 9.67475L21.8054 18.8324H23.1751L24.0465 15.5136L26.4398 13.8821L29.4217 18.8324H30.9219L27.5285 13.2079L32.8369 9.67638H31.0089L24.4378 14.1472L24.3944 14.1128L25.5651 9.67475H24.192Z" fill="currentColor"/>
    <path fill-rule="evenodd" clip-rule="evenodd" d="M33.6447 9.67638L31.2297 18.8324H32.6044L33.8671 14.0425C34.3237 12.3209 35.6299 10.7074 38.0884 10.6713C38.3493 10.6713 38.6102 10.6894 38.8711 10.6894L39.1755 9.57165C38.9363 9.55365 38.6737 9.55365 38.4362 9.55365C36.4293 9.53565 35.2368 10.4766 34.3672 11.7891H34.3237L34.889 9.67802L33.6447 9.67638Z" fill="currentColor"/>
    <path fill-rule="evenodd" clip-rule="evenodd" d="M48.6833 12.9951C48.6833 10.7417 46.8554 9.41128 44.2447 9.41128C40.2408 9.41128 37.978 12.2865 37.978 15.2845C37.978 17.5756 39.5668 19.0991 42.4602 19.0991C46.6162 19.0991 48.6833 16.0831 48.6833 12.9951ZM47.3119 13.2259C47.3119 15.3533 45.7231 18.1582 42.7211 18.1582C40.4365 18.1582 39.3477 16.9521 39.3477 15.1782C39.3477 13.0311 41.0018 10.3522 44.0038 10.3522C46.2014 10.3522 47.3119 11.5239 47.3119 13.2259Z" fill="currentColor"/>
    <path fill-rule="evenodd" clip-rule="evenodd" d="M61.8388 9.66984L62.7302 6.16127H49.3256L48.4392 9.67475H52.739V9.67638H57.5339V9.67475L61.8388 9.66984Z" fill="currentColor"/>
    <path fill-rule="evenodd" clip-rule="evenodd" d="M52.3142 11.3538L50.4143 18.8291H55.2009L57.1058 11.3554V11.3521H52.3142V11.3538Z" fill="currentColor"/>
    <path fill-rule="evenodd" clip-rule="evenodd" d="M62.6082 11.3538L60.7166 18.8291H65.0248L66.9164 11.3538H62.6082ZM67.3496 9.66984L68.2443 6.16127H63.9361L63.0346 9.67475L67.3496 9.66984Z" fill="currentColor"/>
    <path fill-rule="evenodd" clip-rule="evenodd" d="M70.0288 6.16127L66.8077 18.8291H71.1159L71.7899 16.2042L72.7699 15.494L74.2935 18.8291H78.9714L76.0981 13.329L81.169 9.62074H76.0128L72.8352 12.3176H72.7917L74.337 6.16127H70.0288Z" fill="currentColor"/>
    <path fill-rule="evenodd" clip-rule="evenodd" d="M22.7035 0C23.2303 3.5773 25.1921 5.74888 29.1909 5.92726C25.4229 7.33788 21.5395 4.02242 22.7035 0Z" fill="currentColor"/>
    <path fill-rule="evenodd" clip-rule="evenodd" d="M20.613 0.630037C20.6581 0.620218 20.6631 0.649674 20.6665 0.682403C20.7936 2.96363 21.777 4.69336 23.0798 5.87652C24.3827 7.05968 26.132 8.01701 28.5989 7.97447C23.9796 9.77457 19.1245 5.44941 20.6113 0.630037" fill="currentColor"/>
</svg>
