<svg width="82" height="13" viewBox="0 0 82 13" fill="none" xmlns="http://www.w3.org/2000/svg">
    <path d="M35.2157 11.5521L31.6373 1.57385C31.5903 1.4322 31.5275 1.25908 31.5275 1.08595C31.5275 0.661013 31.8885 0.236073 32.4221 0.236073C32.8772 0.236073 33.1754 0.535107 33.3166 0.960048L36.2829 9.56903L39.2648 0.944308C39.406 0.535106 39.6728 0.236073 40.128 0.236073H40.2221C40.7087 0.236073 40.9912 0.535106 41.1324 0.944308L44.0987 9.56903L47.112 0.928569C47.2218 0.566582 47.4729 0.236073 47.9595 0.236073C48.4617 0.236073 48.8226 0.629537 48.8226 1.05448C48.8226 1.21186 48.7599 1.40073 48.7128 1.54237L45.1188 11.5521C44.9305 12.0715 44.5695 12.3548 44.1614 12.3548H44.0987C43.6435 12.3548 43.2982 12.0872 43.1413 11.5521L40.2065 3.06901L37.2402 11.5521C37.0833 12.0715 36.738 12.3548 36.2829 12.3548H36.2358C35.765 12.339 35.3883 12.0715 35.2157 11.5521Z" fill="currentColor"/>
    <path d="M61.2683 1.11743C61.2683 0.629538 61.6606 0.220334 62.1315 0.220334C62.6337 0.220334 63.026 0.613799 63.026 1.11743V3.1477C63.8892 1.18039 65.8196 0.251813 67.0909 0.251813C67.6245 0.251813 67.9541 0.645278 67.9541 1.14891C67.9541 1.63681 67.6402 1.96731 67.1693 2.04601C64.8937 2.31356 63.0103 4.0448 63.0103 7.44433V11.4577C63.0103 11.9456 62.6494 12.3548 62.1472 12.3548C61.6449 12.3548 61.2526 11.9613 61.2526 11.4577L61.2683 1.11743Z" fill="currentColor"/>
    <path d="M73.6197 12.4649C70.4495 12.4649 67.8599 9.99397 67.8599 6.37411V6.32689C67.8599 2.95884 70.214 0.236073 73.4 0.236073C76.8214 0.236073 78.7675 3.06901 78.7675 6.16951C78.7675 6.64166 78.3908 6.98791 77.967 6.98791H69.6177C69.8688 9.52182 71.6265 10.954 73.6825 10.954C75.1107 10.954 76.1622 10.3874 77.0097 9.60051C77.1509 9.49034 77.3079 9.39591 77.4962 9.39591C77.92 9.39591 78.2495 9.74216 78.2495 10.1514C78.2495 10.356 78.1554 10.5606 77.9827 10.7179C76.8841 11.7724 75.5972 12.4649 73.6197 12.4649ZM77.0411 5.69735C76.8684 3.57264 75.66 1.7155 73.3529 1.7155C71.344 1.7155 69.8217 3.41526 69.602 5.69735H77.0411Z" fill="currentColor"/>
    <path d="M48.8697 8.81358V8.76637C48.8697 6.27967 50.91 4.95764 53.8919 4.95764C55.3986 4.95764 56.4658 5.16224 57.5173 5.46127V5.05207C57.5173 2.92737 56.2147 1.8414 54.0175 1.8414C52.8404 1.8414 52.1498 1.99879 51.2867 2.37652C51.1768 2.42373 51.0669 2.43947 50.9728 2.43947C50.5647 2.43947 50.2038 2.09322 50.2038 1.68402C50.2038 1.32203 50.3607 1.10169 50.6903 0.960048C51.8517 0.456414 52.7148 0.28329 54.2215 0.28329C55.8851 0.28329 57.1563 0.708231 58.0195 1.58959C58.8199 2.39226 59.228 3.52543 59.228 5.03633V11.5521C59.228 12.0557 58.867 12.4177 58.3805 12.4177C57.8783 12.4177 57.5487 12.0557 57.5487 11.5993V10.4819C56.7326 11.5521 55.3672 12.5121 53.2955 12.5121C51.0826 12.4964 48.8697 11.2373 48.8697 8.81358ZM57.533 7.90075V6.76757C56.6698 6.51575 55.5084 6.26394 54.0803 6.26394C51.883 6.26394 50.6432 7.22399 50.6432 8.70341V8.75063C50.6432 10.2301 52.0086 11.0957 53.5937 11.0957C55.7596 11.0957 57.533 9.77363 57.533 7.90075Z" fill="currentColor"/>
    <path d="M3.38753 1.00727C2.99517 0.157385 2.0535 -0.220344 1.15893 0.17312C0.264349 0.566584 -0.065234 1.55811 0.342819 2.408L4.07808 10.5448C4.65877 11.8196 5.28654 12.4807 6.44792 12.4807C7.68777 12.4807 8.23707 11.7567 8.81776 10.5448C8.81776 10.5448 12.0665 3.431 12.1136 3.35231C12.145 3.27362 12.2548 3.05328 12.5844 3.05328C12.8669 3.05328 13.1023 3.27362 13.1023 3.57265V10.5291C13.1023 11.5993 13.6987 12.4807 14.8287 12.4807C15.9744 12.4807 16.5865 11.5993 16.5865 10.5291V4.83173C16.5865 3.73003 17.3712 3.0218 18.4384 3.0218C19.5056 3.0218 20.2119 3.76151 20.2119 4.83173V10.5291C20.2119 11.5993 20.8082 12.4807 21.9382 12.4807C23.0839 12.4807 23.696 11.5993 23.696 10.5291V4.83173C23.696 3.73003 24.4807 3.0218 25.5479 3.0218C26.6151 3.0218 27.3214 3.76151 27.3214 4.83173V10.5291C27.3214 11.5993 27.9178 12.4807 29.0478 12.4807C30.1935 12.4807 30.8055 11.5993 30.8055 10.5291V4.0448C30.8055 1.66828 28.8908 0 26.5995 0C24.3081 0 22.8642 1.58959 22.8642 1.58959C22.0952 0.598061 21.0437 0 19.2702 0C17.3869 0 15.739 1.58959 15.739 1.58959C14.9699 0.598061 13.6673 0 12.6001 0C10.9365 0 9.61818 0.739711 8.80207 2.58112L6.41653 8.21552L3.38753 1.00727Z" fill="currentColor"/>
    <path d="M78.9087 1.73124C78.9087 0.92857 79.5522 0.251813 80.3683 0.251813C81.1844 0.251813 81.8279 0.91283 81.8279 1.7155C81.8279 2.51816 81.1844 3.17918 80.3683 3.17918C79.5365 3.17918 78.9087 2.51816 78.9087 1.73124ZM81.5297 1.7155C81.5297 1.05448 81.0274 0.519365 80.3526 0.519365C79.6934 0.519365 79.1755 1.07022 79.1755 1.7155C79.1755 2.36078 79.6777 2.91163 80.3526 2.91163C81.0274 2.91163 81.5297 2.36078 81.5297 1.7155Z" fill="currentColor"/>
    <path d="M79.819 1.11743C79.819 1.023 79.8818 0.960048 79.9759 0.960048H80.4625C80.6508 0.960048 80.792 1.00726 80.8705 1.10169C80.949 1.18039 80.9961 1.29056 80.9961 1.41646C80.9961 1.6368 80.8862 1.77845 80.7136 1.84141L80.9333 2.10896C80.9647 2.14044 80.9804 2.18766 80.9804 2.23487C80.9804 2.31356 80.9019 2.37652 80.8391 2.37652C80.7763 2.37652 80.7293 2.34504 80.6822 2.29782L80.384 1.9201H80.1329V2.23487C80.1329 2.3293 80.0701 2.39226 79.9759 2.39226C79.8818 2.39226 79.819 2.3293 79.819 2.23487V1.11743ZM80.4468 1.65254C80.6037 1.65254 80.6822 1.57385 80.6822 1.44794C80.6822 1.32204 80.588 1.24334 80.4468 1.24334H80.1329V1.65254H80.4468Z" fill="currentColor"/>
</svg>
