<svg width="84" height="22" viewBox="0 0 84 22" fill="none" xmlns="http://www.w3.org/2000/svg">
    <path d="M2.85548 8.85765C1.74925 8.85765 0.853027 9.75671 0.853027 10.8663C0.853027 11.9753 1.74925 12.8742 2.85548 12.8742C3.9611 12.8742 4.85732 11.9753 4.85732 10.8663C4.85732 9.75671 3.9611 8.85765 2.85548 8.85765ZM17.1498 17.9848C16.1923 18.5396 15.8639 19.7671 16.4171 20.7271C16.9695 21.6876 18.1933 22.0169 19.1509 21.4621C20.1084 20.908 20.4367 19.6804 19.8836 18.7198C19.3312 17.7599 18.1067 17.4307 17.1498 17.9848ZM7.20415 10.8663C7.20415 8.8817 8.18686 7.12842 9.69055 6.06672L8.22689 3.60769C6.47527 4.78215 5.17198 6.57683 4.63037 8.67874C5.26236 9.19601 5.66687 9.98346 5.66687 10.8662C5.66687 11.7483 5.26236 12.5358 4.63037 13.0531C5.17128 15.1556 6.47457 16.9504 8.22689 18.1248L9.69055 15.6652C8.18686 14.6041 7.20415 12.8509 7.20415 10.8663ZM13.0518 4.99997C16.1068 4.99997 18.6132 7.34951 18.8763 10.3459L21.7291 10.3037C21.5887 8.09159 20.6253 6.10572 19.145 4.64543C18.3837 4.93391 17.5045 4.88978 16.7445 4.45033C15.9831 4.00964 15.5058 3.26623 15.3753 2.45924C14.6354 2.25441 13.8567 2.14227 13.0517 2.14227C11.6677 2.14227 10.3592 2.46834 9.19743 3.04514L10.5885 5.54564C11.3369 5.19631 12.1718 4.99997 13.0518 4.99997ZM13.0518 16.7319C12.1718 16.7319 11.3369 16.5355 10.5886 16.1862L9.19752 18.6867C10.3593 19.2642 11.6678 19.5903 13.0518 19.5903C13.8569 19.5903 14.6356 19.4781 15.3754 19.2727C15.5059 18.4657 15.9834 17.723 16.7445 17.2815C17.5051 16.8413 18.3838 16.798 19.1451 17.0865C20.6254 15.6262 21.5888 13.6403 21.7292 11.4282L18.8757 11.386C18.6132 14.3832 16.1069 16.7319 13.0518 16.7319ZM17.1491 3.74645C18.1067 4.30114 19.3306 3.97259 19.883 3.01206C20.4361 2.05154 20.1086 0.823926 19.1509 0.269065C18.1933 -0.285088 16.9695 0.0441671 16.4163 1.00469C15.8639 1.96469 16.1922 3.1923 17.1491 3.74645Z" fill="currentColor"/>
    <path d="M76.8002 6.73169V12.9972C76.8002 14.5925 77.5706 15.4828 79.1114 15.4828C79.5239 15.4828 79.9304 15.4645 80.3308 15.4279C80.7311 15.3914 81.0708 15.3366 81.3499 15.2635V6.73169H83.1697V16.3961C82.6238 16.5909 81.9929 16.731 81.2771 16.8162C80.5613 16.9136 79.8394 16.9624 79.1114 16.9624C77.7526 16.9624 76.7213 16.5287 76.0177 15.8468C75.314 15.1648 74.9621 14.1297 74.9621 12.7414V6.73169H76.8002ZM48.6067 6.73169V12.9972C48.6067 14.5925 49.3771 15.4828 50.9179 15.4828C51.3304 15.4828 51.7369 15.4645 52.1372 15.4279C52.5376 15.3914 52.8773 15.3366 53.1564 15.2635V6.73169H54.9762V16.3961C54.4303 16.5909 53.7994 16.731 53.0836 16.8162C52.3678 16.9136 51.6459 16.9624 50.9179 16.9624C49.5591 16.9624 48.5278 16.5287 47.8242 15.8468C47.1205 15.1648 46.7686 14.1297 46.7686 12.7414V6.73169H48.6067ZM69.3373 3.49887L67.6963 3.79734L67.6927 13.7609C67.6927 15.6728 68.7242 16.9261 70.9929 16.9261C71.551 16.9261 72.6333 16.7741 73.2763 16.6645L73.0597 15.3748C73.0471 15.4256 71.6119 15.5716 70.8461 15.5296C70.0803 15.4876 69.3894 14.8612 69.3226 14.2178L69.3263 8.19325H73.1074V6.7304H69.3263L69.3373 3.49887ZM37.8399 1.76704L36.0007 2.0655V16.3961C37.0805 16.7736 38.2272 16.9635 39.4404 16.9635C39.6481 16.9635 39.8492 16.9563 40.0425 16.9414V16.9378C43.6298 16.9551 45.4864 14.102 45.0062 10.791C44.6288 8.4557 42.6965 6.48353 40.4353 6.48353C39.5375 6.48353 38.8216 6.72718 38.2877 6.92202C38.125 6.98373 37.9777 7.04731 37.8399 7.11363L37.8399 1.76704ZM40.4169 7.9648C42.4352 8.06459 43.2438 9.84627 43.3065 11.598C43.3923 13.9927 41.7259 15.6818 39.4771 15.4823C38.9579 15.4362 38.4101 15.4172 37.8399 15.2833V8.69069C38.08 8.48515 38.3509 8.32116 38.6512 8.20062C39.0758 8.04231 39.666 7.92767 40.4169 7.9648ZM59.2893 16.7053H57.4513V7.13355C58.0094 6.93872 58.6281 6.79867 59.3075 6.71342C59.9991 6.61601 60.7088 6.56729 61.4368 6.56728C64.1544 6.56729 65.5133 7.92512 65.5133 10.6408V16.7053H63.6934V10.385C63.6934 8.82628 62.9412 8.0469 61.4368 8.04689C61.0364 8.0469 60.6482 8.06516 60.2721 8.10169C59.896 8.13822 59.5684 8.18694 59.2893 8.24783V16.7053ZM27.2266 6.73169V12.9972C27.2266 14.5925 27.997 15.4828 29.5379 15.4828C29.9504 15.4828 30.3568 15.4645 30.7572 15.4279C31.1575 15.3914 31.4972 15.3366 31.7763 15.2635V6.73169H33.5962V16.3961C33.0502 16.5909 32.4193 16.731 31.7035 16.8162C30.9877 16.9136 30.2658 16.9624 29.5379 16.9624C28.179 16.9624 27.1478 16.5287 26.4441 15.8468C25.7404 15.1648 25.3886 14.1297 25.3886 12.7414V6.73169H27.2266Z" fill="currentColor"/>
</svg>
