<svg width="81" height="18" viewBox="0 0 81 18" fill="none" xmlns="http://www.w3.org/2000/svg">
    <path d="M33.6859 3.42438V13.6975H31.8864V5.63595H31.8624L28.6474 13.6975H27.4478L24.1607 5.63595H24.1367V13.6975H22.4812V3.42438H25.0725L28.0476 11.0341H28.0956L31.2386 3.42438H33.6859ZM35.1734 4.20913C35.1734 3.92376 35.2694 3.68596 35.4853 3.49572C35.7013 3.30547 35.9412 3.21035 36.2291 3.21035C36.541 3.21035 36.8049 3.30547 36.9969 3.49572C37.1888 3.68596 37.3088 3.92376 37.3088 4.20913C37.3088 4.49449 37.2128 4.7323 36.9969 4.92254C36.7809 5.11278 36.541 5.2079 36.2291 5.2079C35.9172 5.2079 35.6773 5.11278 35.4853 4.92254C35.2934 4.70852 35.1734 4.47071 35.1734 4.20913ZM37.1168 6.32558V13.6975H35.3654V6.32558H37.1168ZM42.4193 12.4371C42.6832 12.4371 42.9711 12.3896 43.283 12.2469C43.5949 12.128 43.8828 11.9615 44.1467 11.7713V13.3884C43.8588 13.5548 43.5469 13.6737 43.187 13.7451C42.8271 13.8164 42.4432 13.864 42.0114 13.864C40.9077 13.864 40.02 13.531 39.3482 12.8414C38.6524 12.1518 38.3165 11.2719 38.3165 10.2256C38.3165 9.03655 38.6764 8.06155 39.3722 7.30058C40.068 6.53961 41.0517 6.15912 42.3473 6.15912C42.6832 6.15912 43.0191 6.20668 43.331 6.27802C43.6669 6.34936 43.9308 6.46827 44.1227 6.56339V8.22801C43.8588 8.03777 43.5709 7.87131 43.307 7.77619C43.0191 7.68107 42.7312 7.60972 42.4432 7.60972C41.7475 7.60972 41.1956 7.82375 40.7637 8.27557C40.3319 8.7274 40.1399 9.32191 40.1399 10.0829C40.1399 10.8201 40.3559 11.4146 40.7637 11.8189C41.1716 12.2231 41.7235 12.4371 42.4193 12.4371ZM49.1132 6.20668C49.2572 6.20668 49.3772 6.20668 49.4971 6.23046C49.6171 6.25424 49.7131 6.27802 49.785 6.3018V8.06155C49.6891 7.99021 49.5691 7.91887 49.3772 7.87131C49.1852 7.82375 48.9933 7.77619 48.7294 7.77619C48.2975 7.77619 47.9376 7.96643 47.6497 8.32314C47.3618 8.67984 47.1938 9.22679 47.1938 9.98776V13.6975H45.4423V6.32558H47.1938V7.49082H47.2178C47.3858 7.08656 47.6257 6.77741 47.9376 6.53961C48.2735 6.32558 48.6574 6.20668 49.1132 6.20668ZM49.881 10.1304C49.881 8.91765 50.2409 7.94265 50.9127 7.22924C51.6085 6.51583 52.5682 6.15912 53.7918 6.15912C54.9435 6.15912 55.8552 6.49205 56.503 7.18168C57.1508 7.87131 57.4867 8.79874 57.4867 9.96398C57.4867 11.153 57.1268 12.1042 56.455 12.8176C55.7592 13.531 54.8235 13.8877 53.6239 13.8877C52.4722 13.8877 51.5605 13.5548 50.8887 12.889C50.2169 12.1993 49.881 11.2719 49.881 10.1304ZM51.7045 10.0591C51.7045 10.8201 51.8724 11.4146 52.2323 11.8189C52.5922 12.2231 53.096 12.4371 53.7438 12.4371C54.3677 12.4371 54.8715 12.2469 55.2074 11.8189C55.5433 11.4146 55.7113 10.8201 55.7113 10.0115C55.7113 9.22679 55.5433 8.63228 55.2074 8.20423C54.8715 7.79997 54.3677 7.58594 53.7678 7.58594C53.12 7.58594 52.6402 7.79997 52.2803 8.22801C51.8724 8.67984 51.7045 9.27435 51.7045 10.0591ZM60.1019 8.27557C60.1019 8.51338 60.1739 8.7274 60.3419 8.87008C60.5098 9.01277 60.8457 9.17923 61.3975 9.39325C62.0933 9.67862 62.5972 9.98776 62.8611 10.3207C63.149 10.6774 63.293 11.0817 63.293 11.581C63.293 12.2707 63.0291 12.8176 62.4772 13.2457C61.9494 13.6737 61.2056 13.864 60.2939 13.864C59.982 13.864 59.6461 13.8164 59.2622 13.7451C58.8783 13.6737 58.5664 13.5786 58.3025 13.4597V11.7475C58.6144 11.9615 58.9743 12.1518 59.3342 12.2707C59.6941 12.3896 60.03 12.4609 60.3419 12.4609C60.7257 12.4609 61.0377 12.4134 61.2056 12.2945C61.3975 12.1756 61.4935 12.0091 61.4935 11.7475C61.4935 11.5097 61.3975 11.3195 61.2056 11.1292C61.0137 10.9628 60.6298 10.7725 60.1019 10.5585C59.4541 10.2969 58.9983 9.98776 58.7343 9.65484C58.4704 9.32191 58.3265 8.89387 58.3265 8.3707C58.3265 7.70485 58.5904 7.1579 59.1182 6.72985C59.6461 6.3018 60.3419 6.08778 61.1816 6.08778C61.4455 6.08778 61.7334 6.11156 62.0454 6.1829C62.3573 6.25424 62.6452 6.32558 62.8611 6.39692V8.08533C62.6212 7.94265 62.3573 7.79997 62.0454 7.68107C61.7334 7.56216 61.4215 7.5146 61.1336 7.5146C60.7977 7.5146 60.5338 7.58594 60.3659 7.70485C60.1979 7.87131 60.1019 8.03777 60.1019 8.27557ZM64.0368 10.1304C64.0368 8.91765 64.3966 7.94265 65.0684 7.22924C65.7642 6.51583 66.7239 6.15912 67.9476 6.15912C69.0992 6.15912 70.011 6.49205 70.6588 7.18168C71.3066 7.87131 71.6425 8.79874 71.6425 9.96398C71.6425 11.153 71.2826 12.1042 70.6108 12.8176C69.915 13.531 68.9793 13.8877 67.7796 13.8877C66.628 13.8877 65.7162 13.5548 65.0445 12.889C64.3966 12.1993 64.0368 11.2719 64.0368 10.1304ZM65.8602 10.0591C65.8602 10.8201 66.0282 11.4146 66.388 11.8189C66.7479 12.2231 67.2518 12.4371 67.8996 12.4371C68.5234 12.4371 69.0273 12.2469 69.3632 11.8189C69.6991 11.4146 69.867 10.8201 69.867 10.0115C69.867 9.22679 69.6991 8.63228 69.3632 8.20423C69.0273 7.79997 68.5234 7.58594 67.9236 7.58594C67.2758 7.58594 66.7959 7.79997 66.436 8.22801C66.0521 8.67984 65.8602 9.27435 65.8602 10.0591ZM77.4727 7.75241H74.8575V13.6975H73.082V7.75241H71.8344V6.32558H73.082V5.30303C73.082 4.54205 73.346 3.89998 73.8498 3.4006C74.3536 2.90121 75.0015 2.6634 75.7932 2.6634C76.0092 2.6634 76.2011 2.68718 76.369 2.68718C76.537 2.68718 76.681 2.73474 76.8009 2.78231V4.28047C76.7529 4.25669 76.633 4.20913 76.489 4.16157C76.3451 4.11401 76.1771 4.09023 75.9852 4.09023C75.6253 4.09023 75.3374 4.20913 75.1454 4.42315C74.9535 4.63718 74.8575 4.99388 74.8575 5.42193V6.3018H77.4727V4.63718L79.2242 4.11401V6.3018H80.9997V7.72863H79.2242V11.1768C79.2242 11.6286 79.3202 11.9378 79.4641 12.128C79.6321 12.3182 79.896 12.4134 80.2559 12.4134C80.3518 12.4134 80.4718 12.3896 80.6158 12.342C80.7597 12.2945 80.8797 12.2469 80.9757 12.1756V13.6024C80.8557 13.6737 80.6878 13.7213 80.4238 13.7688C80.1599 13.8164 79.92 13.8402 79.6561 13.8402C78.9123 13.8402 78.3604 13.6499 78.0006 13.2695C77.6407 12.889 77.4487 12.2945 77.4487 11.5097L77.4727 7.75241Z" fill="currentColor"/>
    <path d="M8.20553 0H0V8.13289H8.20553V0Z" fill="currentColor"/>
    <path d="M17.2748 0H9.06927V8.13289H17.2748V0Z" fill="currentColor"/>
    <path d="M8.20553 8.98899H0V17.1219H8.20553V8.98899Z" fill="currentColor"/>
    <path d="M17.2748 8.98899H9.06927V17.1219H17.2748V8.98899Z" fill="currentColor"/>
</svg>
