<svg width="20" height="20" viewBox="0 0 35 34" fill="none" xmlns="http://www.w3.org/2000/svg">
    <path d="M27.958 30.0261C31.6692 26.907 34.0279 22.2307 34.0279 17.0035C34.0279 7.61271 26.4152 0 17.0245 0C7.63371 0 0.0209961 7.61271 0.0209961 17.0035C0.0209961 21.9429 2.12712 26.3903 5.49032 29.4968L7.76749 19.9684C8.03416 18.8526 8.87144 17.9612 9.9684 17.6253C12.3626 16.8922 14.6471 19.0381 14.0651 21.4734L11.3053 33.0212C11.6413 33.1411 11.9821 33.2508 12.3274 33.3499L16.484 15.957C16.7507 14.8412 17.588 13.9498 18.685 13.6139C21.0791 12.8808 23.3636 15.0267 22.7816 17.4621L18.8508 33.91C19.3853 33.8529 19.9124 33.7711 20.431 33.6656L25.3533 13.0689C25.62 11.9531 26.4573 11.0617 27.5542 10.7258C29.9484 9.99271 32.2329 12.1386 31.6509 14.5739L27.958 30.0261Z" fill="#1C40BF"/>
</svg>